<svg width="420" height="90" viewBox="0 0 420 90" fill="none" xmlns="http://www.w3.org/2000/svg">
<path d="M32.023 66.9167C27.7991 66.9167 24.0074 66.3385 20.648 65.1875C17.2834 64.0208 14.3668 62.4115 11.898 60.3542C9.42405 58.2865 7.36155 55.8646 5.71051 53.0833C4.06989 50.3073 2.84593 47.2813 2.04384 44C1.23655 40.7083 0.83551 37.3021 0.83551 33.7708C0.83551 30.2604 1.23134 26.8646 2.02301 23.5833C2.81468 20.2917 4.02301 17.2604 5.64801 14.4792C7.27301 11.7031 9.31468 9.26563 11.773 7.16667C14.2418 5.07292 17.1532 3.44792 20.5022 2.29167C23.8616 1.14063 27.6688 0.5625 31.9188 0.5625C36.1376 0.5625 40.0491 1.27083 43.648 2.6875C47.2574 4.09375 50.4501 6.16667 53.2313 8.91667C56.0074 11.6667 58.2626 15.0521 60.0022 19.0625L49.7522 23.3333C48.7782 20.4167 47.4032 18.0313 45.6272 16.1667C43.8459 14.2917 41.7834 12.9115 39.4397 12.0208C37.1063 11.1198 34.5699 10.6667 31.8355 10.6667C28.4293 10.6667 25.5022 11.2865 23.0438 12.5208C20.5855 13.7604 18.5647 15.4323 16.9813 17.5417C15.398 19.6563 14.2209 22.0729 13.4605 24.7917C12.7105 27.5 12.3355 30.349 12.3355 33.3333C12.3355 36.5156 12.7105 39.5156 13.4605 42.3333C14.2209 45.1406 15.4032 47.6146 17.0022 49.75C18.5959 51.8906 20.6324 53.5625 23.1063 54.7708C25.5751 55.9688 28.5491 56.5625 32.023 56.5625C35.1168 56.5625 37.9397 55.9115 40.4813 54.6042C43.0334 53.3021 45.1532 51.4375 46.8355 49.0208C48.5282 46.6042 49.5907 43.7708 50.023 40.5208H35.398V31.1875H61.2313V66H52.0647L51.0647 56.9375C49.9084 58.9375 48.3876 60.6979 46.5022 62.2083C44.6272 63.7083 42.4501 64.8698 39.9813 65.6875C37.523 66.5052 34.8668 66.9167 32.023 66.9167Z" fill="#000B62"/>
<path d="M92.5738 66.9166C88.6571 66.9166 85.2509 66.276 82.3655 65C79.4748 63.7239 77.0738 61.9791 75.1571 59.7708C73.2509 57.5521 71.8342 55.0364 70.9071 52.2291C69.9748 49.4114 69.5113 46.4687 69.5113 43.3958C69.5113 40.4271 69.9488 37.5312 70.8238 34.7083C71.7092 31.875 73.0634 29.3125 74.8863 27.0208C76.7196 24.7187 79.0373 22.8906 81.8446 21.5416C84.6467 20.1979 87.98 19.5208 91.8446 19.5208C95.0373 19.5208 97.8082 19.9896 100.157 20.9166C102.517 21.8333 104.517 23.0833 106.157 24.6666C107.793 26.25 109.115 28.0364 110.115 30.0208C111.126 32.0104 111.85 34.0781 112.282 36.2291C112.725 38.3698 112.949 40.4531 112.949 42.4791C112.949 43.4271 112.907 44.3073 112.824 45.125C112.751 45.9479 112.657 46.5208 112.532 46.8541H81.2821C81.6155 48.8281 82.2092 50.5729 83.0738 52.0833C83.9332 53.5833 85.1571 54.75 86.7405 55.5833C88.3238 56.4166 90.303 56.8333 92.678 56.8333C94.73 56.8333 96.6675 56.4739 98.4905 55.75C100.324 55.0156 102.032 53.7656 103.615 52L111.261 58.7083C108.772 61.4739 105.996 63.5364 102.928 64.8958C99.855 66.2396 96.4071 66.9166 92.5738 66.9166ZM81.2821 38.8333H102.011C101.647 35.5833 100.574 33.1146 98.7821 31.4166C96.9905 29.7083 94.6467 28.8541 91.7613 28.8541C89.5634 28.8541 87.7613 29.2916 86.3446 30.1666C84.9384 31.0312 83.8342 32.2083 83.0321 33.7083C82.2248 35.2083 81.6415 36.9166 81.2821 38.8333Z" fill="#000B62"/>
<path d="M204.007 66V11.9583H183.82V1.60413H235.716V11.9583H215.57V66H204.007Z" fill="#000B62"/>
<path d="M243.28 66V20.4791H254.135V28.125C254.801 26.2812 255.765 24.7187 257.03 23.4375C258.291 22.1614 259.739 21.1875 261.364 20.5208C262.989 19.8541 264.645 19.5208 266.343 19.5208C267.853 19.5208 269.348 19.7864 270.822 20.3125C272.306 20.8437 273.593 21.6666 274.676 22.7916L269.635 31.9166C268.077 30.875 266.416 30.3541 264.655 30.3541C263.348 30.3541 262.062 30.6666 260.801 31.2916C259.551 31.9166 258.411 32.8906 257.385 34.2083C256.369 35.5312 255.556 37.2291 254.947 39.3125C254.332 41.3958 254.03 43.8854 254.03 46.7708V66H243.28Z" fill="#000B62"/>
<path d="M292.858 66.9166C289.759 66.9166 286.952 66.3385 284.441 65.1875C281.941 64.0208 279.962 62.3281 278.504 60.1041C277.045 57.8698 276.316 55.1666 276.316 52C276.316 49.5416 276.78 47.4739 277.712 45.7916C278.639 44.0989 279.926 42.7448 281.566 41.7291C283.202 40.7187 285.118 39.9791 287.316 39.5208C289.524 39.0625 291.905 38.8333 294.462 38.8333H306.316C306.316 35.9479 305.551 33.625 304.024 31.875C302.509 30.1146 300.28 29.2291 297.337 29.2291C295.597 29.2291 294.035 29.5364 292.649 30.1458C291.274 30.7448 290.092 31.5312 289.108 32.5C288.118 33.4739 287.295 34.5208 286.629 35.6458L278.108 29.5C279.566 27.4896 281.202 25.7396 283.024 24.25C284.842 22.7656 286.92 21.6041 289.254 20.7708C291.597 19.9375 294.259 19.5208 297.233 19.5208C301.368 19.5208 304.905 20.3229 307.837 21.9166C310.764 23.5 313.009 25.7187 314.566 28.5625C316.134 31.3958 316.92 34.6666 316.92 38.375V66H307.774L307.045 59.4791C305.097 62.3437 302.926 64.3021 300.524 65.3541C298.118 66.3958 295.566 66.9166 292.858 66.9166ZM294.462 57.5208C296.045 57.5208 297.535 57.2448 298.941 56.6875C300.358 56.1198 301.597 55.3333 302.67 54.3333C303.754 53.3333 304.618 52.1979 305.274 50.9166C305.941 49.6406 306.285 48.2864 306.316 46.8541H295.108C292.577 46.8541 290.712 47.4166 289.504 48.5416C288.306 49.6666 287.712 50.9479 287.712 52.375C287.712 53.8646 288.295 55.0937 289.462 56.0625C290.639 57.0364 292.306 57.5208 294.462 57.5208Z" fill="#000B62"/>
<path d="M346.812 66.9166C343.114 66.9166 339.88 66.2604 337.104 64.9583C334.338 63.6562 332.047 61.8854 330.229 59.6458C328.406 57.4114 327.041 54.8854 326.125 52.0625C325.218 49.2291 324.77 46.3125 324.77 43.3125C324.77 40.3281 325.213 37.4166 326.104 34.5833C327.005 31.7396 328.359 29.1823 330.166 26.9166C331.968 24.6562 334.255 22.8541 337.02 21.5208C339.781 20.1875 343.02 19.5208 346.729 19.5208C351.255 19.5208 355.234 20.6354 358.666 22.8541C362.093 25.0625 364.677 28.4323 366.416 32.9583L355.854 37.0625C355.27 34.8698 354.172 33.0781 352.562 31.6875C350.948 30.2864 349.005 29.5833 346.729 29.5833C344.812 29.5833 343.177 29.9739 341.833 30.75C340.484 31.5312 339.38 32.5781 338.52 33.8958C337.672 35.2187 337.047 36.6875 336.645 38.3125C336.255 39.9375 336.062 41.6041 336.062 43.3125C336.062 45.0364 336.255 46.7031 336.645 48.3125C337.047 49.9271 337.666 51.375 338.5 52.6666C339.333 53.9583 340.422 54.9791 341.77 55.7291C343.13 56.4687 344.781 56.8333 346.729 56.8333C348.979 56.8333 350.916 56.1614 352.541 54.8125C354.166 53.4687 355.27 51.7239 355.854 49.5833L365.958 53.4166C364.958 56.25 363.526 58.6823 361.666 60.7083C359.817 62.7239 357.63 64.2656 355.104 65.3333C352.588 66.3854 349.823 66.9166 346.812 66.9166Z" fill="#000B62"/>
<path d="M374.627 66V1.60413H385.731V39.375L402.919 20.4791H417.356L400.315 38.1041L419.231 66H406.106L392.752 44.8958L385.731 52.6458V66H374.627Z" fill="#000B62"/>
<mask id="mask0_20_262" style="mask-type:luminance" maskUnits="userSpaceOnUse" x="120" y="5" width="67" height="85">
<path d="M120.229 5.04688H186.229V89.0469H120.229V5.04688Z" fill="white"/>
</mask>
<g mask="url(#mask0_20_262)">
<path d="M153.271 64.6563C138.589 64.6563 126.693 52.7552 126.693 38.0781C126.693 23.401 138.589 11.5052 153.271 11.5052C167.948 11.5052 179.844 23.401 179.844 38.0781C179.844 52.7552 167.948 64.6563 153.271 64.6563ZM153.271 5.04688C135.026 5.04688 120.234 19.8385 120.234 38.0781C120.234 67.349 153.266 88.8281 153.266 88.8281C153.271 88.8281 186.302 67.349 186.302 38.0781C186.302 19.8385 171.51 5.04688 153.271 5.04688Z" fill="#000B62"/>
</g>
<mask id="mask1_20_262" style="mask-type:luminance" maskUnits="userSpaceOnUse" x="131" y="24" width="11" height="14">
<path d="M131.979 24H142V37.3333H131.979V24Z" fill="white"/>
</mask>
<g mask="url(#mask1_20_262)">
<path d="M141.38 27.7084C139.469 27.0521 137.719 26.2292 136.198 25.2604C133.698 28.599 132.161 32.6927 131.979 37.1354H139.99C140.063 33.7552 140.552 30.5625 141.38 27.7084Z" fill="#000B62"/>
</g>
<path d="M164.578 26.0938C166.297 25.5052 167.87 24.776 169.25 23.9219C166.635 20.9635 163.224 18.7344 159.344 17.5781C161.505 19.5365 163.318 22.4896 164.578 26.0938Z" fill="#000B62"/>
<path d="M147.089 17.6042C143.255 18.7709 139.875 20.9896 137.292 23.9219C138.651 24.7656 140.203 25.4844 141.896 26.0729C143.151 22.4948 144.948 19.5573 147.089 17.6042Z" fill="#000B62"/>
<mask id="mask2_20_262" style="mask-type:luminance" maskUnits="userSpaceOnUse" x="154" y="16" width="10" height="12">
<path d="M154 16.75H163.333V28H154V16.75Z" fill="white"/>
</mask>
<g mask="url(#mask2_20_262)">
<path d="M162.974 26.5938C161.073 21.0834 157.844 17.2865 154.125 16.7604V27.8646C157.245 27.7969 160.255 27.3542 162.974 26.5938Z" fill="#000B62"/>
</g>
<path d="M141.896 49.9219C140.203 50.5104 138.651 51.2292 137.292 52.0729C139.875 55.0052 143.255 57.224 147.089 58.3906C144.948 56.4375 143.151 53.5 141.896 49.9219Z" fill="#000B62"/>
<path d="M159.344 58.4219C163.224 57.2656 166.635 55.0313 169.25 52.0729C167.87 51.2188 166.297 50.4896 164.578 49.9011C163.318 53.5052 161.505 56.4636 159.344 58.4219Z" fill="#000B62"/>
<mask id="mask3_20_262" style="mask-type:luminance" maskUnits="userSpaceOnUse" x="164" y="24" width="11" height="14">
<path d="M164.667 24H174.979V37.3333H164.667V24Z" fill="white"/>
</mask>
<g mask="url(#mask3_20_262)">
<path d="M166.479 37.1354H174.557C174.38 32.6927 172.839 28.599 170.344 25.2604C168.802 26.2396 167.031 27.0677 165.094 27.7292C165.917 30.5834 166.406 33.7656 166.479 37.1354Z" fill="#000B62"/>
</g>
<mask id="mask4_20_262" style="mask-type:luminance" maskUnits="userSpaceOnUse" x="164" y="38" width="11" height="14">
<path d="M164.667 38.6667H174.979V52H164.667V38.6667Z" fill="white"/>
</mask>
<g mask="url(#mask4_20_262)">
<path d="M165.094 48.2657C167.031 48.9271 168.802 49.7605 170.344 50.7344C172.844 47.3907 174.38 43.2917 174.557 38.849H166.479C166.406 42.224 165.917 45.4115 165.094 48.2657Z" fill="#000B62"/>
</g>
<mask id="mask5_20_262" style="mask-type:luminance" maskUnits="userSpaceOnUse" x="131" y="38" width="11" height="14">
<path d="M131.979 38.6667H142V52H131.979V38.6667Z" fill="white"/>
</mask>
<g mask="url(#mask5_20_262)">
<path d="M139.99 38.849H131.979C132.156 43.2917 133.693 47.3907 136.198 50.7344C137.719 49.7709 139.469 48.948 141.38 48.2865C140.552 45.4271 140.063 42.2292 139.99 38.849Z" fill="#000B62"/>
</g>
<path d="M141.703 38.849C141.771 42.0625 142.229 45.0938 142.99 47.7865C145.891 46.9636 149.094 46.4896 152.411 46.4167V38.849H141.703Z" fill="#000B62"/>
<path d="M152.411 29.5782C149.094 29.5105 145.891 29.0365 142.99 28.2084C142.229 30.9011 141.776 33.9271 141.703 37.1355H152.411V29.5782Z" fill="#000B62"/>
<mask id="mask6_20_262" style="mask-type:luminance" maskUnits="userSpaceOnUse" x="143" y="48" width="10" height="12">
<path d="M143.333 48H152.667V59.75H143.333V48Z" fill="white"/>
</mask>
<g mask="url(#mask6_20_262)">
<path d="M152.411 59.2448V48.1354C149.266 48.2031 146.234 48.6459 143.5 49.4219C145.411 54.9584 148.667 58.7552 152.411 59.2448Z" fill="#000B62"/>
</g>
<mask id="mask7_20_262" style="mask-type:luminance" maskUnits="userSpaceOnUse" x="143" y="16" width="10" height="12">
<path d="M143.333 16.75H152.667V28H143.333V16.75Z" fill="white"/>
</mask>
<g mask="url(#mask7_20_262)">
<path d="M152.411 16.75C148.667 17.2396 145.411 21.0417 143.5 26.5729C146.234 27.349 149.266 27.7969 152.411 27.8646V16.75Z" fill="#000B62"/>
</g>
<path d="M154.125 46.4167C157.417 46.4896 160.599 46.9532 163.484 47.7709C164.24 45.0782 164.693 42.0521 164.76 38.849H154.125V46.4167Z" fill="#000B62"/>
<mask id="mask8_20_262" style="mask-type:luminance" maskUnits="userSpaceOnUse" x="154" y="48" width="10" height="12">
<path d="M154 48H163.333V59.75H154V48Z" fill="white"/>
</mask>
<g mask="url(#mask8_20_262)">
<path d="M154.125 59.2396C157.844 58.7084 161.073 54.9115 162.974 49.4063C160.255 48.6407 157.245 48.2032 154.125 48.1302V59.2396Z" fill="#000B62"/>
</g>
<path d="M164.76 37.1354C164.693 33.9323 164.24 30.9167 163.484 28.2292C160.599 29.0417 157.417 29.5104 154.125 29.5781V37.1354H164.76Z" fill="#000B62"/>
</svg>
