<svg width="53" height="67" viewBox="0 0 53 67" fill="none" xmlns="http://www.w3.org/2000/svg">
<mask id="mask0_5_428" style="mask-type:luminance" maskUnits="userSpaceOnUse" x="0" y="0" width="53" height="67">
<path d="M0.5 0H52.5V66.7333H0.5V0Z" fill="white"/>
</mask>
<g mask="url(#mask0_5_428)">
<path d="M26.591 47.3734C15.0039 47.3734 5.61048 37.916 5.61048 26.2527C5.61048 14.5894 15.0039 5.13433 26.591 5.13433C38.1782 5.13433 47.5716 14.5894 47.5716 26.2527C47.5716 37.916 38.1782 47.3734 26.591 47.3734ZM26.591 0.00239563C12.1872 0.00239563 0.512039 11.7543 0.512039 26.2527C0.512039 49.5111 26.591 66.5812 26.591 66.5812C26.591 66.5812 52.67 49.5111 52.67 26.2527C52.67 11.7543 40.9926 0.00239563 26.591 0.00239563Z" fill="#000B62"/>
<path d="M26.591 47.3734C15.0039 47.3734 5.61048 37.916 5.61048 26.2527C5.61048 14.5894 15.0039 5.13433 26.591 5.13433C38.1782 5.13433 47.5716 14.5894 47.5716 26.2527C47.5716 37.916 38.1782 47.3734 26.591 47.3734Z" fill="white"/>
</g>
<mask id="mask1_5_428" style="mask-type:luminance" maskUnits="userSpaceOnUse" x="9" y="15" width="9" height="12">
<path d="M9.77827 15.5548H17.6324V26.0231H9.77827V15.5548Z" fill="white"/>
</mask>
<g mask="url(#mask1_5_428)">
<path d="M17.2014 18.0083C15.6915 17.4858 14.3125 16.8315 13.1095 16.0637C11.137 18.7171 9.92272 21.9703 9.78279 25.4983H16.1045C16.1609 22.8154 16.5491 20.2778 17.2014 18.0083Z" fill="#000B62"/>
</g>
<path d="M35.5142 16.7271C36.8707 16.2591 38.112 15.6798 39.2021 15.0005C37.1415 12.6492 34.4444 10.8772 31.384 9.95944C33.088 11.5133 34.5212 13.8623 35.5142 16.7271Z" fill="#000B62"/>
<path d="M21.7085 9.98218C18.6819 10.9068 16.0142 12.6697 13.9717 15.0005C15.0483 15.6707 16.2738 16.2432 17.6099 16.7089C18.5984 13.8669 20.018 11.5338 21.7085 9.98218Z" fill="#000B62"/>
<mask id="mask2_5_428" style="mask-type:luminance" maskUnits="userSpaceOnUse" x="26" y="9" width="9" height="10">
<path d="M26.8769 9.30063H34.388V18.4627H26.8769V9.30063Z" fill="white"/>
</mask>
<g mask="url(#mask2_5_428)">
<path d="M34.2481 17.1222C32.7495 12.7445 30.1991 9.72988 27.2651 9.3096V18.1309C29.7274 18.0786 32.1017 17.7288 34.2481 17.1222Z" fill="#000B62"/>
</g>
<mask id="mask3_5_428" style="mask-type:luminance" maskUnits="userSpaceOnUse" x="13" y="35" width="10" height="8">
<path d="M13.588 35.3283H22.2547V42.8865H13.588V35.3283Z" fill="white"/>
</mask>
<g mask="url(#mask3_5_428)">
<path d="M17.6099 35.66C16.2738 36.1257 15.0483 36.7005 13.9717 37.3684C16.0142 39.7015 18.6819 41.4644 21.7085 42.389C20.018 40.8351 18.5984 38.5043 17.6099 35.66Z" fill="#000B62"/>
</g>
<mask id="mask4_5_428" style="mask-type:luminance" maskUnits="userSpaceOnUse" x="30" y="35" width="10" height="8">
<path d="M30.9213 35.3283H39.588V42.8865H30.9213V35.3283Z" fill="white"/>
</mask>
<g mask="url(#mask4_5_428)">
<path d="M31.384 42.4117C34.4444 41.4939 37.1415 39.722 39.2021 37.3684C38.112 36.6914 36.8706 36.1121 35.5142 35.6418C34.5212 38.5066 33.088 40.8556 31.384 42.4117Z" fill="#000B62"/>
</g>
<mask id="mask5_5_428" style="mask-type:luminance" maskUnits="userSpaceOnUse" x="35" y="15" width="9" height="12">
<path d="M35.5436 15.5548H43.5783V26.0231H35.5436V15.5548Z" fill="white"/>
</mask>
<g mask="url(#mask5_5_428)">
<path d="M37.0151 25.4983H43.391C43.251 21.9703 42.0368 18.7171 40.0642 16.0637C38.8477 16.8406 37.4529 17.5017 35.9227 18.0265C36.5705 20.2914 36.9564 22.8222 37.0128 25.4983H37.0151Z" fill="#000B62"/>
</g>
<mask id="mask6_5_428" style="mask-type:luminance" maskUnits="userSpaceOnUse" x="35" y="26" width="9" height="11">
<path d="M35.5436 26.6047H43.5783V36.4915H35.5436V26.6047Z" fill="white"/>
</mask>
<g mask="url(#mask6_5_428)">
<path d="M35.9227 34.3447C37.4529 34.8695 38.8477 35.5305 40.0642 36.3075C42.039 33.6495 43.2533 30.3918 43.391 26.8615H37.0151C36.9587 29.5421 36.5705 32.0752 35.9227 34.3447Z" fill="#000B62"/>
</g>
<mask id="mask7_5_428" style="mask-type:luminance" maskUnits="userSpaceOnUse" x="9" y="26" width="9" height="11">
<path d="M9.77827 26.6047H17.6324V36.4915H9.77827V26.6047Z" fill="white"/>
</mask>
<g mask="url(#mask7_5_428)">
<path d="M16.1045 26.8615H9.78279C9.92047 30.3918 11.1347 33.6495 13.1095 36.3052C14.3125 35.5396 15.6915 34.8854 17.2014 34.3606C16.5491 32.0888 16.1609 29.549 16.1045 26.8615Z" fill="#000B62"/>
</g>
<path d="M17.4587 26.8614C17.5128 29.4149 17.8717 31.8207 18.4698 33.963C20.7628 33.3064 23.2929 32.9316 25.9087 32.8748V26.8614H17.4587Z" fill="#000B62"/>
<path d="M25.9087 19.4941C23.2929 19.4395 20.7628 19.0624 18.4698 18.4059C17.8739 20.5459 17.5128 22.9494 17.4587 25.4984H25.9087V19.4941Z" fill="#000B62"/>
<mask id="mask8_5_428" style="mask-type:luminance" maskUnits="userSpaceOnUse" x="18" y="34" width="9" height="9">
<path d="M18.788 34.1652H26.2991V42.8865H18.788V34.1652Z" fill="white"/>
</mask>
<g mask="url(#mask8_5_428)">
<path d="M25.9087 43.0683V34.2379C23.4283 34.2924 21.0337 34.6468 18.8738 35.2625C20.3837 39.6606 22.9543 42.6798 25.9087 43.0683Z" fill="#000B62"/>
</g>
<mask id="mask9_5_428" style="mask-type:luminance" maskUnits="userSpaceOnUse" x="18" y="9" width="9" height="10">
<path d="M18.788 9.30063H26.2991V18.4627H18.788V9.30063Z" fill="white"/>
</mask>
<g mask="url(#mask9_5_428)">
<path d="M25.9087 9.30063C22.9543 9.69137 20.3837 12.7106 18.8738 17.1087C21.0337 17.7244 23.4283 18.0788 25.9087 18.131V9.30063Z" fill="#000B62"/>
</g>
<path d="M27.2651 32.8748C29.8628 32.9316 32.3726 33.3019 34.6521 33.9494C35.2479 31.8116 35.6068 29.4081 35.6609 26.8614H27.2628V32.8748H27.2651Z" fill="#000B62"/>
<mask id="mask10_5_428" style="mask-type:luminance" maskUnits="userSpaceOnUse" x="26" y="34" width="9" height="9">
<path d="M26.8769 34.1652H34.388V42.8865H26.8769V34.1652Z" fill="white"/>
</mask>
<g mask="url(#mask10_5_428)">
<path d="M27.2651 43.0615C30.1991 42.6412 32.7495 39.6265 34.2481 35.2488C32.1017 34.6423 29.7274 34.2924 27.2651 34.2379V43.0615Z" fill="#000B62"/>
</g>
<path d="M35.6609 25.4984C35.6045 22.9562 35.2479 20.5572 34.6521 18.4218C32.3725 19.0692 29.8628 19.4395 27.2651 19.4963V25.4984H35.6609Z" fill="#000B62"/>
</svg>
