<?xml version="1.0" standalone="no"?>
<!DOCTYPE svg PUBLIC "-//W3C//DTD SVG 20010904//EN"
 "http://www.w3.org/TR/2001/REC-SVG-20010904/DTD/svg10.dtd">
<svg version="1.0" xmlns="http://www.w3.org/2000/svg"
 width="105.000000pt" height="134.000000pt" viewBox="0 0 105.000000 134.000000"
 preserveAspectRatio="xMidYMid meet">

<g transform="translate(0.000000,134.000000) scale(0.100000,-0.100000)"
fill="#000B62" stroke="none">
<path d="M413 1326 c-199 -49 -359 -219 -394 -420 -47 -274 127 -601 454 -853
l58 -45 42 29 c72 48 271 254 327 337 104 155 150 290 150 437 0 206 -114 390
-295 475 -112 54 -229 67 -342 40z m252 -112 c214 -72 333 -308 265 -525 -65
-210 -285 -337 -489 -285 -173 44 -294 175 -324 351 -36 209 119 430 333 475
59 12 154 5 215 -16z"/>
<path d="M455 1118 c-41 -36 -81 -106 -68 -119 5 -5 37 -12 71 -15 l62 -7 0
87 c0 99 -7 105 -65 54z"/>
<path d="M550 1064 l0 -87 56 6 c31 3 61 10 67 16 22 22 -76 151 -117 151 -3
0 -6 -39 -6 -86z"/>
<path d="M395 1124 c-55 -29 -105 -67 -105 -79 0 -11 41 -35 60 -35 6 0 10 6
10 14 0 8 15 37 34 65 19 28 34 51 33 51 -1 -1 -15 -8 -32 -16z"/>
<path d="M640 1135 c0 -4 11 -21 24 -38 14 -18 29 -45 35 -60 9 -23 15 -27 34
-21 43 13 50 25 27 49 -22 24 -120 81 -120 70z"/>
<path d="M245 994 c-23 -36 -45 -101 -45 -135 0 -29 1 -29 59 -29 l58 0 7 43
c4 23 9 56 12 74 5 29 3 33 -34 52 l-40 20 -17 -25z"/>
<path d="M752 992 c-26 -12 -32 -21 -28 -37 3 -11 9 -44 12 -72 l7 -53 64 0
64 0 -7 38 c-9 53 -51 142 -66 141 -7 0 -28 -8 -46 -17z"/>
<path d="M366 955 c-3 -9 -9 -41 -12 -71 l-7 -54 87 0 86 0 0 59 0 58 -52 7
c-29 3 -63 9 -74 12 -14 4 -23 0 -28 -11z"/>
<path d="M613 957 l-63 -10 0 -58 0 -59 80 0 80 0 -1 43 c-1 51 -11 90 -24 92
-6 1 -38 -2 -72 -8z"/>
<path d="M203 755 c5 -37 37 -116 53 -134 2 -2 22 4 45 14 37 17 40 21 35 49
-3 17 -8 50 -12 74 l-7 42 -60 0 -60 0 6 -45z"/>
<path d="M354 746 c9 -82 11 -85 54 -75 20 5 54 9 75 9 l37 0 0 60 0 60 -86 0
-87 0 7 -54z"/>
<path d="M550 740 l0 -60 33 0 c17 0 49 -4 70 -9 20 -5 39 -5 42 -1 3 5 8 36
11 69 l7 61 -82 0 -81 0 0 -60z"/>
<path d="M736 748 c-3 -29 -9 -62 -12 -73 -4 -16 2 -24 31 -38 20 -9 40 -17
46 -17 13 0 55 94 63 143 l7 37 -64 0 -64 0 -7 -52z"/>
<path d="M402 643 c-18 -4 -22 -9 -16 -26 11 -37 43 -85 75 -112 52 -43 59
-36 59 60 l0 85 -47 -1 c-27 -1 -58 -4 -71 -6z"/>
<path d="M550 566 c0 -50 4 -86 10 -86 33 0 136 137 117 156 -3 3 -33 8 -66
11 l-61 6 0 -87z"/>
<path d="M699 598 c-7 -16 -23 -45 -35 -64 -13 -19 -21 -34 -18 -34 21 0 134
76 134 89 0 4 -15 15 -34 24 l-34 16 -13 -31z"/>
<path d="M302 607 l-22 -13 27 -26 c29 -27 92 -68 105 -68 4 0 -6 21 -22 47
-17 26 -30 53 -30 60 0 16 -28 16 -58 0z"/>
</g>
</svg>
