<?xml version="1.0" encoding="utf-8"?>
<!-- Uploaded to: SVG Repo, www.svgrepo.com, Generator: SVG Repo Mixer Tools -->
<svg fill="#5E5E5E" width="800px" height="800px" viewBox="0 0 32 32" version="1.1" xmlns="http://www.w3.org/2000/svg">
<title>pin-dot</title>
<path d="M15.961 0.75c-6.468 0.287-11.671 5.331-12.208 11.703l-0.003 0.047c0 4.828 10.104 16.941 11.256 18.307 0.23 0.272 0.571 0.443 0.952 0.443 0 0 0.001 0 0.001 0h0.002c0 0 0.001 0 0.001 0 0.38 0 0.721-0.171 0.949-0.44l0.001-0.002c1.161-1.365 11.337-13.478 11.337-18.309-0.641-6.4-5.83-11.403-12.256-11.749l-0.033-0.001zM15.964 28.047c-4.104-5.018-9.714-12.813-9.714-15.547 0.584-5.013 4.644-8.915 9.68-9.248l0.031-0.002c5.092 0.316 9.183 4.22 9.784 9.2l0.005 0.050c0 2.732-5.652 10.527-9.786 15.547zM16 6.429c-3.076 0.001-5.57 2.495-5.57 5.571s2.494 5.571 5.571 5.571 5.571-2.494 5.571-5.571v0c-0.003-3.076-2.496-5.568-5.572-5.571h-0zM16 15.071c-1.696-0.001-3.070-1.375-3.070-3.071s1.375-3.071 3.071-3.071 3.071 1.375 3.071 3.071v0c-0.002 1.696-1.376 3.070-3.072 3.071h-0z"></path>
</svg>