<svg width="96" height="111" viewBox="0 0 96 111" fill="none" xmlns="http://www.w3.org/2000/svg">
<g filter="url(#filter0_d_20_207)">
<mask id="mask0_20_207" style="mask-type:luminance" maskUnits="userSpaceOnUse" x="15" y="15" width="66" height="84">
<path d="M15 15H81V99H15V15Z" fill="white"/>
</mask>
<g mask="url(#mask0_20_207)">
<path d="M48.0417 74.6094C33.3594 74.6094 21.4636 62.7083 21.4636 48.0312C21.4636 33.3542 33.3594 21.4583 48.0417 21.4583C62.7188 21.4583 74.6146 33.3542 74.6146 48.0312C74.6146 62.7083 62.7188 74.6094 48.0417 74.6094Z" fill="#000B62"/>
<path fill-rule="evenodd" clip-rule="evenodd" d="M48.0417 15C29.7969 15 15.0052 29.7917 15.0052 48.0312C15.0052 67.7905 30.0574 83.9992 39.8397 92.4468C44.9663 96.8739 51.1076 96.8752 56.2347 92.4487C66.0186 84.0016 81.073 67.792 81.073 48.0312C81.073 29.7917 66.2813 15 48.0417 15ZM21.4636 48.0312C21.4636 62.7083 33.3594 74.6094 48.0417 74.6094C62.7188 74.6094 74.6146 62.7083 74.6146 48.0312C74.6146 33.3542 62.7188 21.4583 48.0417 21.4583C33.3594 21.4583 21.4636 33.3542 21.4636 48.0312Z" fill="white"/>
</g>
</g>
<defs>
<filter id="filter0_d_20_207" x="0.00524902" y="0" width="95.9948" height="110.768" filterUnits="userSpaceOnUse" color-interpolation-filters="sRGB">
<feFlood flood-opacity="0" result="BackgroundImageFix"/>
<feColorMatrix in="SourceAlpha" type="matrix" values="0 0 0 0 0 0 0 0 0 0 0 0 0 0 0 0 0 0 127 0" result="hardAlpha"/>
<feOffset/>
<feGaussianBlur stdDeviation="7.5"/>
<feComposite in2="hardAlpha" operator="out"/>
<feColorMatrix type="matrix" values="0 0 0 0 0 0 0 0 0 0 0 0 0 0 0 0 0 0 0.4 0"/>
<feBlend mode="normal" in2="BackgroundImageFix" result="effect1_dropShadow_20_207"/>
<feBlend mode="normal" in="SourceGraphic" in2="effect1_dropShadow_20_207" result="shape"/>
</filter>
</defs>
</svg>
